HIERARCHY
ROOT hips
{
  OFFSET 0 10.6860622 2.3727825e-15
  CHANNELS 6 Xposition Yposition Zposition Yrotation Xrotation Zrotation
  JOINT leftUpperLeg
  {
    OFFSET 0.6642549969 -0.9402397400000004 0
    CHANNELS 3 Yrotation Xrotation Zrotation
    JOINT leftLowerLeg
    {
      OFFSET 0 -3.997221335632195 0
      CHANNELS 3 Yrotation Xrotation Zrotation
      JOINT leftFoot
      {
        OFFSET -0.13777839790000004 -4.6145792000000005 -0.22186036399999998
        CHANNELS 3 Yrotation Xrotation Zrotation
        JOINT leftToes
        {
          OFFSET -0.03777410834999995 -0.9130806927000008 0.85230013
          CHANNELS 3 Yrotation Xrotation Zrotation
          End Site
          {
            OFFSET -0.03777410834999995 -0.9130806927000008 0.85230013
          }
        }
      }
    }
  }
  JOINT rightUpperLeg
  {
    OFFSET -0.6642778626 -0.9402397400000004 0
    CHANNELS 3 Yrotation Xrotation Zrotation
    JOINT rightLowerLeg
    {
      OFFSET 0 -3.997221452859387 0
      CHANNELS 3 Yrotation Xrotation Zrotation
      JOINT rightFoot
      {
        OFFSET 0.1377926176 -4.6145792000000005 -0.22185782299999995
        CHANNELS 3 Yrotation Xrotation Zrotation
        JOINT rightToes
        {
          OFFSET 0.037780746850000047 -0.9130806927000008 0.85230167
          CHANNELS 3 Yrotation Xrotation Zrotation
          End Site
          {
            OFFSET 0.037780746850000047 -0.9130806927000008 0.85230167
          }
        }
      }
    }
  }
  JOINT spine
  {
    OFFSET 0 0.13988381660000015 0
    CHANNELS 3 Yrotation Xrotation Zrotation
    JOINT chest
    {
      OFFSET 0 0.6191039003973773 0
      CHANNELS 3 Yrotation Xrotation Zrotation
      JOINT upperChest
      {
        OFFSET 0 0.9855186130586943 0
        CHANNELS 3 Yrotation Xrotation Zrotation
        JOINT leftShoulder
        {
          OFFSET 0.1807663869 1.5087829790000005 0
          CHANNELS 3 Yrotation Xrotation Zrotation
          JOINT leftUpperArm
          {
            OFFSET 0.5985063006419806 0 0
            CHANNELS 3 Yrotation Xrotation Zrotation
            JOINT leftLowerArm
            {
              OFFSET 2.2993332369501065 0 0
              CHANNELS 3 Yrotation Xrotation Zrotation
              JOINT leftHand
              {
                OFFSET 2.395047042602395 0 0
                CHANNELS 3 Yrotation Xrotation Zrotation
                JOINT leftIndexProximal
                {
                  OFFSET 0.5766295810000004 0.04556643899499946 0.17265095988184
                  CHANNELS 3 Yrotation Xrotation Zrotation
                  JOINT leftIndexIntermediate
                  {
                    OFFSET 0.2957229000000008 -0.019352197700001517 -0.007932640616999987
                    CHANNELS 3 Yrotation Xrotation Zrotation
                    JOINT leftIndexDistal
                    {
                      OFFSET 0.19008243099999922 -0.012484908149998475 -0.002786250786000012
                      CHANNELS 3 Yrotation Xrotation Zrotation
                      End Site
                      {
                        OFFSET 0.19008243099999922 -0.012484908149998475 -0.002786250786000012
                      }
                    }
                  }
                }
                JOINT leftMiddleProximal
                {
                  OFFSET 0.5834975091000001 0.0524350405149987 0.02204081888183999
                  CHANNELS 3 Yrotation Xrotation Zrotation
                  JOINT leftMiddleIntermediate
                  {
                    OFFSET 0.33880573540000003 -0.019871473270000717 -0.00000971183179999946
                    CHANNELS 3 Yrotation Xrotation Zrotation
                    JOINT leftMiddleDistal
                    {
                      OFFSET 0.20676022730000088 -0.012221336379999448 0.0001471936708000235
                      CHANNELS 3 Yrotation Xrotation Zrotation
                      End Site
                      {
                        OFFSET 0.20676022730000088 -0.012221336379999448 0.0001471936708000235
                      }
                    }
                  }
                }
                JOINT leftLittleProximal
                {
                  OFFSET 0.5344154683999995 -0.012880921405001189 -0.24414037221816004
                  CHANNELS 3 Yrotation Xrotation Zrotation
                  JOINT leftLittleIntermediate
                  {
                    OFFSET 0.21758961730000093 -0.011650919939999227 0.011893592810000034
                    CHANNELS 3 Yrotation Xrotation Zrotation
                    JOINT leftLittleDistal
                    {
                      OFFSET 0.1475273964999999 -0.008152365682999818 0.006001092492999946
                      CHANNELS 3 Yrotation Xrotation Zrotation
                      End Site
                      {
                        OFFSET 0.1475273964999999 -0.008152365682999818 0.006001092492999946
                      }
                    }
                  }
                }
                JOINT leftRingProximal
                {
                  OFFSET 0.5799399463000003 0.026911854694997794 -0.12150566991816003
                  CHANNELS 3 Yrotation Xrotation Zrotation
                  JOINT leftRingIntermediate
                  {
                    OFFSET 0.26167887460000006 -0.013480186499999602 0.010996293000000053
                    CHANNELS 3 Yrotation Xrotation Zrotation
                    JOINT leftRingDistal
                    {
                      OFFSET 0.17667108799999987 -0.008990287899999228 0.0055541023999999065
                      CHANNELS 3 Yrotation Xrotation Zrotation
                      End Site
                      {
                        OFFSET 0.17667108799999987 -0.008990287899999228 0.0055541023999999065
                      }
                    }
                  }
                }
                JOINT leftThumbProximal
                {
                  OFFSET 0.11018806699999972 -0.09448718900500053 0.17047963138184
                  CHANNELS 3 Yrotation Xrotation Zrotation
                  JOINT leftThumbIntermediate
                  {
                    OFFSET 0.31062601459999983 -0.08126270900000132 0.15443142000000007
                    CHANNELS 3 Yrotation Xrotation Zrotation
                    JOINT leftThumbDistal
                    {
                      OFFSET 0.21627175790000086 -0.08833193599999878 0.018771167799999988
                      CHANNELS 3 Yrotation Xrotation Zrotation
                      End Site
                      {
                        OFFSET 0.21627175790000086 -0.08833193599999878 0.018771167799999988
                      }
                    }
                  }
                }
              }
            }
          }
        }
        JOINT neck
        {
          OFFSET 0 1.5463305265074576 0
          CHANNELS 3 Yrotation Xrotation Zrotation
          JOINT head
          {
            OFFSET 0 0.8456443600000344 0
            CHANNELS 3 Yrotation Xrotation Zrotation
            JOINT leftEye
            {
              OFFSET 0.30408573140000006 0.5104519199999995 0.1276382305
              CHANNELS 3 Yrotation Xrotation Zrotation
              End Site
              {
                OFFSET 0.30408573140000006 0.5104519199999995 0.1276382305
              }
            }
            JOINT rightEye
            {
              OFFSET -0.30409491089999996 0.5104519199999995 0.1276379445
              CHANNELS 3 Yrotation Xrotation Zrotation
              End Site
              {
                OFFSET -0.30409491089999996 0.5104519199999995 0.1276379445
              }
            }
            JOINT jaw
            {
              OFFSET -3.155239131000001e-7 -0.11984121820000082 0.60178107
              CHANNELS 3 Yrotation Xrotation Zrotation
              End Site
              {
                OFFSET -3.155239131000001e-7 -0.11984121820000082 0.60178107
              }
            }
          }
        }
        JOINT rightShoulder
        {
          OFFSET -0.1807303465 1.5087829790000005 0
          CHANNELS 3 Yrotation Xrotation Zrotation
          JOINT rightUpperArm
          {
            OFFSET -0.5985063796536958 0 0
            CHANNELS 3 Yrotation Xrotation Zrotation
            JOINT rightLowerArm
            {
              OFFSET -2.2993322059002854 0 0
              CHANNELS 3 Yrotation Xrotation Zrotation
              JOINT rightHand
              {
                OFFSET -2.395045314457259 0 0
                CHANNELS 3 Yrotation Xrotation Zrotation
                JOINT rightIndexProximal
                {
                  OFFSET -0.5764487688300002 0.0441371204405987 0.17361932004999997
                  CHANNELS 3 Yrotation Xrotation Zrotation
                  JOINT rightIndexIntermediate
                  {
                    OFFSET -0.29573011380000047 -0.01934826376999843 -0.007698921482999974
                    CHANNELS 3 Yrotation Xrotation Zrotation
                    JOINT rightIndexDistal
                    {
                      OFFSET -0.19008373999999884 -0.012503266380000655 -0.0026365778999999897
                      CHANNELS 3 Yrotation Xrotation Zrotation
                      End Site
                      {
                        OFFSET -0.19008373999999884 -0.012503266380000655 -0.0026365778999999897
                      }
                    }
                  }
                }
                JOINT rightMiddleProximal
                {
                  OFFSET -0.5834852037300005 0.05211639405060153 0.02307162440000001
                  CHANNELS 3 Yrotation Xrotation Zrotation
                  JOINT rightMiddleIntermediate
                  {
                    OFFSET -0.33880114510000003 -0.019952774050000954 0.0002455003561999819
                    CHANNELS 3 Yrotation Xrotation Zrotation
                    JOINT rightMiddleDistal
                    {
                      OFFSET -0.20675694929999955 -0.012273788999999091 0.00030209124000002766
                      CHANNELS 3 Yrotation Xrotation Zrotation
                      End Site
                      {
                        OFFSET -0.20675694929999955 -0.012273788999999091 0.00030209124000002766
                      }
                    }
                  }
                }
                JOINT rightLittleProximal
                {
                  OFFSET -0.5346811737299992 -0.011214256288399227 -0.24363941305000003
                  CHANNELS 3 Yrotation Xrotation Zrotation
                  JOINT rightLittleIntermediate
                  {
                    OFFSET -0.21757715980000092 -0.011771559690000988 0.01201554387
                    CHANNELS 3 Yrotation Xrotation Zrotation
                    JOINT rightLittleDistal
                    {
                      OFFSET -0.1475201849000004 -0.00822055339600003 0.006082065407000015
                      CHANNELS 3 Yrotation Xrotation Zrotation
                      End Site
                      {
                        OFFSET -0.1475201849000004 -0.00822055339600003 0.006082065407000015
                      }
                    }
                  }
                }
                JOINT rightRingProximal
                {
                  OFFSET -0.5800810755299999 0.027657985680600072 -0.12066365025000003
                  CHANNELS 3 Yrotation Xrotation Zrotation
                  JOINT rightRingIntermediate
                  {
                    OFFSET -0.26166445029999974 -0.013623118409999302 0.011164098990000045
                    CHANNELS 3 Yrotation Xrotation Zrotation
                    JOINT rightRingDistal
                    {
                      OFFSET -0.17666387530000027 -0.009072900100000503 0.005668185599999959
                      CHANNELS 3 Yrotation Xrotation Zrotation
                      End Site
                      {
                        OFFSET -0.17666387530000027 -0.009072900100000503 0.005668185599999959
                      }
                    }
                  }
                }
                JOINT rightThumbProximal
                {
                  OFFSET -0.10997596379000074 -0.09577489355940072 0.16989765924999997
                  CHANNELS 3 Yrotation Xrotation Zrotation
                  JOINT rightThumbIntermediate
                  {
                    OFFSET -0.31036620999999986 -0.08229339117999834 0.15440884469999996
                    CHANNELS 3 Yrotation Xrotation Zrotation
                    JOINT rightThumbDistal
                    {
                      OFFSET -0.21631306399999906 -0.08825326400000111 0.018656797720000014
                      CHANNELS 3 Yrotation Xrotation Zrotation
                      End Site
                      {
                        OFFSET -0.21631306399999906 -0.08825326400000111 0.018656797720000014
                      }
                    }
                  }
                }
              }
            }
          }
        }
      }
    }
  }
}
MOTION
Frames: 6
Frame Time: 0.03333333333333333
5.366740723532839 -6.725965070953629 3.0085034431493143 -90.01306168984988 -42.00659154469952 -90.00090301302697 -152.9595364420788 -61.81982716307892 -174.19391527197138 8.792702865689636 65.1448735956839 24.045352834626236 4.325491916985712 16.188049237279518 -20.367836233342757 0 0 0 -177.25260506810295 -40.612115582632484 -153.59862656580768 -41.4852467714982 74.88019276178017 0.14936726645827103 10.416652280732853 16.311585556310135 4.673723910348066 0 0 0 6.011392601591808 4.765997442106806 22.082909044711382 15.121478887248687 9.756561470468407 17.391091115130774 0 0 0 37.417931440723144 -3.5935930971947645 9.041730284781414 -35.48506749860389 28.314125999473763 -15.706916309385804 -54.63537537663839 21.357829348575354 48.20530374482279 -0.24652341136326664 8.891341661908717 -9.804833154086085 0 0 0 0 0 0 0 0 0 0 0 0 0 0 0 0 0 0 0 0 0 0 0 0 0 0 0 0 0 0 0 0 0 0 0 0 0 0 0 0 0 0 0 0 0 0 -34.27533086798701 0 0 -25.42649737174832 0 0 0 0 0 0 0 0 0 0 20.07852188112603 -1.8502580312087533 29.00847975452485 -55.9221551133522 -16.847780382790894 58.693233080038276 1.3152052346176195 -15.302784134417486 -0.29490609587380345 -4.74130834476106 -0.6576774026860045 30.497491696094226 0 0 0 0 0 0 0 0 0 0 0 0 0 0 0 0 0 0 0 0 0 0 0 0 0 0 0 0 0 0 0 0 0 0 0 0 0 0 0 0 0 0 0 0 0
5.366740723532839 -6.725965070953629 3.041395452782416 -90.01306168984988 -42.00659154469952 -90.00090301302697 -153.58992767796244 -61.99078857454054 -173.40532031849114 8.792702865689636 65.1448735956839 24.045352834626236 4.1233355215298655 15.951955374901747 -20.18780132192265 0 0 0 -177.7916283981429 -40.266792388419525 -152.76034336809926 -41.4852467714982 74.88019276178017 0.14936726645827103 9.993373201570034 15.995745817492878 5.114295465966521 0 0 0 5.979397201154345 4.740415782073922 22.32681734209196 15.052531943353051 9.860686660455741 17.96984891101305 0 0 0 37.17508462557852 -2.610186569352201 8.208927877339764 -35.48506749860389 28.314125999473763 -15.706916309385804 -54.37419913526218 21.081816716978402 48.0616037918648 -0.15487507538194636 9.132560788966032 -9.26016572193423 0 0 0 0 0 0 0 0 0 0 0 0 0 0 0 0 0 0 0 0 0 0 0 0 0 0 0 0 0 0 0 0 0 0 0 0 0 0 0 0 0 0 0 0 0 0 -33.83404451400257 0 0 -25.1111789860767 0 0 0 0 0 0 0 0 0 0 20.126471162490645 -1.6661814671385184 28.48917454090534 -55.77386294365722 -17.024818389824244 58.55357156378221 1.3152052346176195 -15.302784134417486 -0.29490609587380345 -4.652807962608127 -0.6924943613708643 30.340179036146548 0 0 0 0 0 0 0 0 0 0 0 0 0 0 0 0 0 0 0 0 0 0 0 0 0 0 0 0 0 0 0 0 0 0 0 0 0 0 0 0 0 0 0 0 0
5.366740723532839 -6.725965070953629 3.07428773080779 -90.01306168984988 -42.00659154469952 -90.00090301302697 -154.2289492573972 -62.157661284792965 -172.60818450933712 8.792702865689636 65.1448735956839 24.045352834626236 3.9206068988169176 15.716431953196375 -20.007073635122318 0 0 0 -178.32159323790432 -39.91530613288408 -151.9300734237103 -41.48523998296101 74.88019276178017 0.14937172872454382 9.567942147115886 15.682832402169005 5.5569064112857145 0 0 0 5.94729327449637 4.714967853412676 22.570750447243167 14.984605627478198 9.96553823437567 18.548921521868092 0 0 0 36.917552683789914 -1.6283171794979276 7.370691960286813 -35.48506749860389 28.314125999473763 -15.706916309385804 -54.1127068267572 20.806357736538693 47.91679397190654 -0.06080377544200677 9.373013057024865 -8.714506360548262 0 0 0 0 0 0 0 0 0 0 0 0 0 0 0 0 0 0 0 0 0 0 0 0 0 0 0 0 0 0 0 0 0 0 0 0 0 0 0 0 0 0 0 0 0 0 -33.39228008532388 0 0 -24.795695591243685 0 0 0 0 0 0 0 0 0 0 20.17275548101946 -1.4816076402721488 27.969873378321964 -55.6249541753329 -17.201527132883804 58.41327371874615 1.3152052346176195 -15.302784134417486 -0.29490609587380345 -4.564207987045569 -0.7270704186657972 30.182812859681352 0 0 0 0 0 0 0 0 0 0 0 0 0 0 0 0 0 0 0 0 0 0 0 0 0 0 0 0 0 0 0 0 0 0 0 0 0 0 0 0 0 0 0 0 0
5.366740723532839 -6.725965070953629 3.107179740440892 -90.01306168984988 -42.00659154469952 -90.00090301302697 -154.87651615933794 -62.32037877196875 -171.80257687856871 8.792702865689636 65.1448735956839 24.045352834626236 3.7173103668191794 15.481488954061803 -19.825665077873285 0 0 0 -178.84247041333327 -39.55783144660625 -151.10785426078965 -41.48523998296101 74.88019276178017 0.14937172872454382 9.140395552412821 15.372903887421085 6.001523335648154 0 0 0 5.915077805647079 4.689653636367221 22.81469776570979 14.91771141740022 10.071103366675922 19.128281486801967 0 0 0 36.64524868710858 -0.648489614418643 6.5267474657289375 -35.48506749860389 28.314125999473763 -15.706916309385804 -53.85086954495489 20.531448479827265 47.77084752990068 0.035688285163497944 9.61265523654647 -8.167857783203242 0 0 0 0 0 0 0 0 0 0 0 0 0 0 0 0 0 0 0 0 0 0 0 0 0 0 0 0 0 0 0 0 0 0 0 0 0 0 0 0 0 0 0 0 0 0 -32.95004730195371 0 0 -24.480040798318495 0 0 0 0 0 0 0 0 0 0 20.217374683188453 -1.2965626289242924 27.450586885277712 -55.4754275600357 -17.37790556668865 58.272342765160836 1.3152052346176195 -15.302784134417486 -0.29490609587380345 -4.47550870398114 -0.7614046745457657 30.02537609710598 0 0 0 0 0 0 0 0 0 0 0 0 0 0 0 0 0 0 0 0 0 0 0 0 0 0 0 0 0 0 0 0 0 0 0 0 0 0 0 0 0 0 0 0 0
5.366740723532839 -6.725965070953629 3.140072018466266 -90.01306168984988 -42.00659154469952 -90.00090301302697 -155.5325616288846 -62.478815437757376 -170.98856015297446 8.792702865689636 65.1448735956839 24.045352834626236 3.5134437348792797 15.247136372320032 -19.643576957520338 0 0 0 -179.35423811980482 -39.19446900254061 -150.29370095498396 -41.48523998296101 74.88019276178017 0.14937172872454382 8.710765867497459 15.06602444283166 6.448106234077509 0 0 0 5.882755021189532 4.664476537862003 23.058672967895134 14.851860846111062 10.177364897147124 19.707898766287645 0 0 0 36.3580840249152 0.3287827251218616 5.676820953629504 -35.48506749860389 28.314125999473763 -15.706916309385804 -53.58872564270211 20.25712880124159 47.623830993792666 0.1345973355503889 9.851455160757954 -7.620236751869487 0 0 0 0 0 0 0 0 0 0 0 0 0 0 0 0 0 0 0 0 0 0 0 0 0 0 0 0 0 0 0 0 0 0 0 0 0 0 0 0 0 0 0 0 0 0 -32.50735539767216 0 0 -24.164217586195182 0 0 0 0 0 0 0 0 0 0 20.26032735110191 -1.1110690577085711 26.931343640977655 -55.32530970665245 -17.55392934098831 58.13080308039881 1.3152052346176195 -15.302784134417486 -0.29490609587380345 -4.386712908508092 -0.7954950544204376 29.86789223754517 0 0 0 0 0 0 0 0 0 0 0 0 0 0 0 0 0 0 0 0 0 0 0 0 0 0 0 0 0 0 0 0 0 0 0 0 0 0 0 0 0 0 0 0 0
5.366740723532839 -6.725965070953629 3.172964296491639 -90.01306168984988 -42.00659154469952 -90.00090301302697 -156.19697801280134 -62.63293375934078 -170.16626527269457 8.792702865689636 65.1448735956839 24.045352834626236 3.309007190251286 15.01338068162727 -19.4607990349686 0 0 0 -179.8568873677528 -38.82542263694539 -149.48763135027488 -41.4852467714982 74.88019276178017 0.14936726645827103 8.279095260788553 14.762256742057932 6.896622311692274 0 0 0 5.850326088833894 4.639433968507231 23.30266390426837 14.787058790688873 10.284304793994423 20.28774066051184 0 0 0 36.05596027121991 1.3029842321453837 4.820643389252592 -35.48506749860389 28.314125999473763 -15.706916309385804 -53.32624675534478 19.98340200766443 47.47569137045244 0.23591944087597108 10.08937441662695 -7.071649764466575 0 0 0 0 0 0 0 0 0 0 0 0 0 0 0 0 0 0 0 0 0 0 0 0 0 0 0 0 0 0 0 0 0 0 0 0 0 0 0 0 0 0 0 0 0 0 -32.06422119650616 0 0 -23.84824005190702 0 0 0 0 0 0 0 0 0 0 20.301600762194482 -0.925151224350646 26.412144549331163 -55.17458653100454 -17.729609845758162 57.988629103096436 1.3152052346176195 -15.302784134417486 -0.29490609587380345 -4.297820203537832 -0.8293431120713701 29.710342990208826 0 0 0 0 0 0 0 0 0 0 0 0 0 0 0 0 0 0 0 0 0 0 0 0 0 0 0 0 0 0 0 0 0 0 0 0 0 0 0 0 0 0 0 0 0
